<svg width="74" height="80" viewBox="0 0 74 80" fill="none" xmlns="http://www.w3.org/2000/svg">
<path d="M2.39483 16.8386H16.7638V2.40552H55.3206V39.9316H57.7155V0H14.848L0 14.9142V74.8117H38.0778V72.4062H2.39483V16.8386ZM4.07122 14.4331L14.369 4.08939V14.4331H4.07122Z" fill="black"/>
<path d="M47.4178 24.2949H10.2979V43.2985H47.4178V24.2949ZM45.0229 40.893H12.6927V26.7004H45.0229V40.893Z" fill="black"/>
<path d="M47.4169 17.3203H24.666V19.7258H47.4169V17.3203Z" fill="black"/>
<path d="M47.4169 10.3438H24.666V12.7493H47.4169V10.3438Z" fill="black"/>
<path d="M37.599 50.2756V47.8701H10.2979V57.2516H34.7252V54.8461H12.6927V50.2756H37.599Z" fill="black"/>
<path d="M39.2756 34.8799H17.2432V37.2854H39.2756V34.8799Z" fill="black"/>
<path d="M39.2756 30.0693H17.2432V32.4749H39.2756V30.0693Z" fill="black"/>
<path d="M56.5174 44.502C46.9381 44.502 39.0352 52.4402 39.0352 62.0623C39.0352 71.6843 46.9381 79.6226 56.5174 79.6226C66.0968 79.6226 73.9997 71.6843 73.9997 62.0623C73.9997 52.1996 66.0968 44.502 56.5174 44.502ZM56.5174 76.9765C48.375 76.9765 41.43 70.241 41.43 61.8217C41.43 53.6429 48.1355 46.6669 56.5174 46.6669C64.6599 46.6669 71.6049 53.4024 71.6049 61.8217C71.6049 70.241 64.8994 76.9765 56.5174 76.9765Z" fill="black"/>
<path d="M57.7161 60.3789V54.1245C59.153 54.3651 60.5899 55.0867 61.5479 56.2895L62.9848 54.6056C61.7873 53.1623 59.8715 52.2001 57.7161 51.9595V49.3135H57.4766H55.8003H55.3213V51.9595C52.208 52.4407 49.8132 54.3651 49.8132 57.2517C49.8132 60.6194 52.4475 61.5816 55.3213 62.5438V69.5198C53.1659 69.2793 51.729 68.0765 50.5316 66.8738L49.0947 68.7982C50.5316 70.2415 52.4475 71.4443 55.3213 71.6848V74.3309H55.8003H57.4766H57.7161V71.6848C62.0268 71.2037 63.4637 68.5576 63.4637 66.1521C63.4637 62.5438 60.5899 61.3411 57.7161 60.3789ZM55.3213 59.8978C53.6449 59.4167 52.208 58.695 52.208 57.2517C52.208 55.5678 53.4054 54.6056 55.3213 54.3651V59.8978ZM57.7161 69.5198V63.2655C59.632 63.7466 61.0689 64.7088 61.0689 66.3927C61.0689 67.5954 60.3504 69.0387 57.7161 69.5198Z" fill="black"/>
<path d="M12.6927 61.1006H10.2979V68.3171H12.6927V61.1006Z" fill="black"/>
<path d="M16.0462 61.1006H13.6514V68.3171H16.0462V61.1006Z" fill="black"/>
<path d="M19.1585 61.1006H16.7637V68.3171H19.1585V61.1006Z" fill="black"/>
<path d="M22.513 61.1006H20.1182V68.3171H22.513V61.1006Z" fill="black"/>
<path d="M28.2591 61.1006H25.8643V68.3171H28.2591V61.1006Z" fill="black"/>
<path d="M31.3714 61.1006H28.9766V68.3171H31.3714V61.1006Z" fill="black"/>
<path d="M34.7259 61.1006H32.3311V68.3171H34.7259V61.1006Z" fill="black"/>
</svg>
