<svg width="30" height="20" viewBox="0 0 30 20" fill="none" xmlns="http://www.w3.org/2000/svg">
<path d="M29.8826 0.7021C29.8674 0.661398 29.8371 0.630872 29.8168 0.590171C29.8067 0.579995 29.8016 0.564732 29.7915 0.554557C29.5992 0.234033 29.2602 0 28.8654 0C24.2451 0 19.6197 0 14.9993 0C10.379 0 5.75356 0 1.13321 0C0.743539 0 0.399417 0.234033 0.207113 0.559645C0.196992 0.56982 0.191931 0.579995 0.18181 0.590171C0.161567 0.630872 0.136264 0.661398 0.121082 0.7021C0.00468814 0.915782 -0.0357968 1.15999 0.0350519 1.4042C0.0350519 7.20924 0.0350519 13.0143 0.0350519 18.8193C0.0350519 19.1907 0.242537 19.5112 0.530993 19.7148C0.824509 19.9691 1.23442 20.0862 1.61903 19.9284C6.07744 19.9284 10.5409 19.9284 14.9993 19.9284C19.4577 19.9284 23.9212 19.9284 28.3796 19.9284C28.7642 20.0862 29.1741 19.9691 29.4676 19.7148C29.7561 19.5112 29.9636 19.1907 29.9636 18.8193C29.9636 13.0143 29.9636 7.20924 29.9636 1.4042C30.0344 1.15999 29.999 0.915782 29.8826 0.7021ZM14.9993 17.7102C11.3152 17.7102 7.62599 17.7102 3.94185 17.7102C6.21407 15.4258 8.48123 13.1466 10.7535 10.8622C11.9123 11.8594 13.0662 12.8617 14.225 13.8588C14.4679 14.0725 14.7412 14.1488 14.9993 14.1336C15.2625 14.1488 15.5357 14.0725 15.7837 13.8588C16.9426 12.8617 18.0964 11.8594 19.2553 10.8622C21.5275 13.1466 23.7947 15.4258 26.0669 17.7102C22.3726 17.7102 18.6885 17.7102 14.9993 17.7102ZM14.9993 2.21314C18.6328 2.21314 22.2664 2.21314 25.8999 2.21314C22.2664 5.35224 18.6328 8.48625 14.9993 11.6253C11.3658 8.48625 7.73732 5.35224 4.10379 2.21314C7.73732 2.21314 11.3658 2.21314 14.9993 2.21314ZM2.23642 3.5105C4.51876 5.47943 6.79604 7.44836 9.07839 9.41729C6.79604 11.7118 4.51876 14.0013 2.23642 16.2907C2.23642 12.0324 2.23642 7.77397 2.23642 3.5105ZM27.7673 16.2958C25.4849 14.0013 23.2076 11.7118 20.9253 9.42238C23.2026 7.45345 25.4849 5.48452 27.7673 3.51559C27.7673 7.77397 27.7673 12.0324 27.7673 16.2958Z" fill="#00668C"/>
</svg>
