<svg width="239" height="214" viewBox="0 0 239 214" fill="none" xmlns="http://www.w3.org/2000/svg">
<path d="M119.997 18.6887C118.158 18.6887 116.369 19.1426 114.822 20.0005C113.2 20.902 111.87 22.2325 110.876 23.9608L21.1314 179.495C20.1372 181.223 19.6464 183.039 19.6775 184.898C19.7085 186.669 20.2118 188.448 21.1314 190.039C22.0509 191.631 23.3371 192.961 24.8531 193.869C26.4437 194.826 28.258 195.311 30.2525 195.311H209.742C211.736 195.311 213.551 194.826 215.141 193.869C216.657 192.955 217.943 191.631 218.863 190.039C219.783 188.448 220.286 186.669 220.317 184.898C220.348 183.039 219.863 181.223 218.863 179.495L129.125 23.9608C128.13 22.2325 126.801 20.902 125.179 20.0005C123.632 19.1426 121.836 18.6887 119.997 18.6887ZM119.997 0C129.839 0 139.675 4.87423 145.298 14.6165L235.042 170.151C246.288 189.641 232.234 214 209.742 214H30.2525C7.76038 214 -6.29408 189.641 4.95197 170.151L94.6967 14.6165C100.32 4.87423 110.162 0 119.997 0Z" fill="#FF0000"/>
<path d="M107.919 76.179L115.045 143.293C115.325 145.916 117.537 147.912 120.177 147.912C122.824 147.912 125.049 145.904 125.31 143.268L132.082 76.123C132.803 68.9671 127.186 62.75 119.997 62.75C112.784 62.7438 107.161 69.0044 107.919 76.179Z" fill="#FF0000"/>
<path d="M109.267 166.855V166.942C109.267 173.097 114.256 178.09 120.407 178.09C126.559 178.09 131.548 173.097 131.548 166.942V166.855C131.548 160.7 126.559 155.708 120.407 155.708C114.256 155.708 109.267 160.7 109.267 166.855Z" fill="#FF0000"/>
</svg>
