<?xml version="1.0" encoding="utf-8"?>
<!-- Generator: Adobe Illustrator 24.0.1, SVG Export Plug-In . SVG Version: 6.00 Build 0)  -->
<svg version="1.1" id="Layer_1" xmlns="http://www.w3.org/2000/svg" xmlns:xlink="http://www.w3.org/1999/xlink" x="0px" y="0px"
	 viewBox="0 0 25 24" style="enable-background:new 0 0 25 24;" xml:space="preserve">
<style type="text/css">
	.st0{fill:#FFFFFF;}
</style>
<g>
	<path class="st0" d="M17.7,1H7.1c-3.3,0-6,2.7-6,6v10c0,3.3,2.7,6,6,6h10.6c3.3,0,6-2.7,6-6V7C23.7,3.7,21,1,17.7,1z M21.7,17
		c0,2.2-1.8,4-4,4H7.1c-2.2,0-4-1.8-4-4V7c0-2.2,1.8-4,4-4h10.6c2.2,0,4,1.8,4,4V17z"/>
	<path class="st0" d="M13.2,7C11,6.7,8.9,7.8,7.9,9.7c-1,1.9-0.6,4.3,1,5.8c1,1,2.3,1.5,3.6,1.5c0.8,0,1.6-0.2,2.3-0.5
		c2-1,3.1-3.1,2.8-5.2C17.2,9,15.4,7.3,13.2,7z M13.8,14.6c-1.2,0.6-2.7,0.4-3.6-0.6c-0.9-0.9-1.2-2.3-0.6-3.4
		c0.5-1,1.6-1.7,2.8-1.7c0.2,0,0.3,0,0.5,0c1.4,0.2,2.4,1.2,2.6,2.5C15.7,12.8,15,14,13.8,14.6z"/>
</g>
</svg>
