<svg width="25" height="24" viewBox="0 0 25 24" fill="none" xmlns="http://www.w3.org/2000/svg">
<path fill-rule="evenodd" clip-rule="evenodd" d="M2.06451 7C2.06451 4.23858 4.30309 2 7.06451 2H17.7097C20.4711 2 22.7097 4.23858 22.7097 7V17C22.7097 19.7614 20.4711 22 17.7097 22H7.06452C4.30309 22 2.06451 19.7614 2.06451 17V7Z" stroke="white" stroke-width="2" stroke-linecap="round" stroke-linejoin="round"/>
<path fill-rule="evenodd" clip-rule="evenodd" d="M16.516 11.37C16.7773 13.077 15.8791 14.7538 14.288 15.5297C12.6969 16.3055 10.7715 16.0054 9.51197 14.7852C8.2524 13.5649 7.94258 11.6998 8.74344 10.1584C9.5443 8.61697 11.2753 7.74687 13.0373 7.99999C14.8365 8.25846 16.2492 9.62702 16.516 11.37Z" stroke="white" stroke-width="2" stroke-linecap="round" stroke-linejoin="round"/>
</svg>
