<svg width="120" height="119" viewBox="0 0 120 119" fill="none" xmlns="http://www.w3.org/2000/svg">
<path d="M59.5009 4.76105C29.317 4.76105 4.76105 29.3171 4.76105 59.5009C4.76105 89.6848 29.317 114.241 59.5009 114.241C89.6848 114.241 114.241 89.6848 114.241 59.5009C114.241 29.3171 89.683 4.76105 59.5009 4.76105ZM59.5009 119C26.6922 119 0 92.3097 0 59.5009C0 26.6922 26.6922 0 59.5009 0C92.3097 0 119.002 26.6922 119.002 59.5009C119.002 92.3097 92.3097 119 59.5009 119Z" fill="white"/>
<path d="M49.1552 35.5553V82.0855C49.1552 82.5049 49.6288 82.7895 50.0052 82.5124L81.1532 59.2482C81.4397 59.0348 81.4397 58.6098 81.1532 58.3945L50.007 35.1284C49.6307 34.8514 49.1552 35.1359 49.1552 35.5553ZM44.396 82.0837V35.5553C44.396 31.2062 49.3798 28.7161 52.8547 31.3166L84.0027 54.5808C86.8373 56.6964 86.8391 60.9426 84.0027 63.0601L52.8547 86.3242C49.378 88.9247 44.396 86.4328 44.396 82.0837Z" fill="white"/>
</svg>
