<svg width="138" height="138" viewBox="0 0 138 138" fill="none" xmlns="http://www.w3.org/2000/svg">
<path d="M69.4451 94.7764C67.8737 94.7764 66.4041 94.165 65.2939 93.0548L35.0604 62.8214C33.0384 60.7994 33.0384 57.5223 35.0604 55.5003C37.0824 53.4783 40.3595 53.4783 42.3815 55.5003L69.4451 82.564L129.161 22.8373C131.183 20.8153 134.46 20.8153 136.482 22.8373C138.504 24.8593 138.504 28.1363 136.482 30.1583L73.591 93.0548C72.4862 94.165 71.0112 94.7764 69.4451 94.7764Z" fill="#00668C"/>
<path d="M69 138C30.9521 138 0 107.048 0 69C0 30.9521 30.9521 0 69 0C82.6123 0 95.7794 3.95818 107.075 11.4455C109.456 13.0277 110.11 16.2403 108.528 18.6217C106.946 21.0084 103.733 21.6574 101.352 20.0752C91.7569 13.7142 80.5688 10.3513 69 10.3513C36.6641 10.3513 10.3567 36.6588 10.3567 68.9946C10.3567 101.336 36.6641 127.649 69 127.649C101.336 127.649 127.649 101.336 127.649 69C127.649 66.1413 129.966 63.8243 132.824 63.8243C135.683 63.8243 138 66.1413 138 69C138 107.048 107.048 138 69 138Z" fill="#00668C"/>
</svg>
