<?xml version="1.0" encoding="utf-8"?>
<!-- Generator: Adobe Illustrator 24.0.1, SVG Export Plug-In . SVG Version: 6.00 Build 0)  -->
<svg version="1.1" id="Layer_1" xmlns="http://www.w3.org/2000/svg" xmlns:xlink="http://www.w3.org/1999/xlink" x="0px" y="0px"
	 viewBox="0 0 22 22" style="enable-background:new 0 0 22 22;" xml:space="preserve">
<style type="text/css">
	.st0{fill:#00668C;}
</style>
<g>
	<path class="st0" d="M11.1,0.3C5.2,0.3,0.3,5.1,0.3,11s4.8,10.8,10.8,10.8c5.9,0,10.8-4.8,10.8-10.8S17,0.3,11.1,0.3z M11.9,20.2
		V20h-1.5v0.2c-4.5-0.4-8.1-4-8.5-8.5h0.2v-1.5H1.9c0.4-4.5,4-8.1,8.5-8.5V3h1.5V1.8c4.5,0.4,8.1,4,8.5,8.5h-1.2v1.5h1.2
		C20,16.3,16.4,19.8,11.9,20.2z"/>
	<polygon class="st0" points="10.2,10.8 6,16.1 7.1,17 11.7,11.4 11.7,4.7 10.2,4.7 	"/>
</g>
</svg>
