<svg width="24" height="19" viewBox="0 0 24 19" fill="none" xmlns="http://www.w3.org/2000/svg">
<g clip-path="url(#clip0)">
<path d="M23.1501 2.24982C22.2992 2.63393 21.3942 2.89458 20.4352 3.00433C21.4077 2.41444 22.1641 1.46787 22.5153 0.356679C21.5968 0.905415 20.5973 1.30325 19.5167 1.52274C18.6523 0.576173 17.4232 0 16.0725 0C13.4656 0 11.345 2.15379 11.345 4.80144C11.345 5.17184 11.3855 5.54224 11.4666 5.89892C7.54952 5.69314 4.0647 3.78628 1.74149 0.891697C1.33628 1.59134 1.09315 2.41444 1.09315 3.29242C1.09315 4.95235 1.93059 6.42022 3.20025 7.28448C2.43035 7.25704 1.70097 7.03754 1.05263 6.68087V6.73574C1.05263 9.05415 2.67348 11.0022 4.8346 11.4412C4.45641 11.5509 4.03769 11.6058 3.60546 11.6058C3.2948 11.6058 3.01115 11.5783 2.714 11.5235C3.30831 13.4303 5.05071 14.8159 7.11729 14.857C5.49645 16.1466 3.47039 16.9148 1.25524 16.9148C0.877042 16.9148 0.498845 16.8874 0.134155 16.8462C2.22775 18.2043 4.69953 19 7.37392 19C16.0589 19 20.7999 11.6881 20.7999 5.35018C20.7999 5.1444 20.7999 4.93863 20.7864 4.73285C21.7184 4.06065 22.5153 3.21011 23.1501 2.24982Z" fill="white"/>
</g>
<defs>
<clipPath id="clip0">
</clipPath>
</defs>
</svg>
