<?xml version="1.0" encoding="utf-8"?>
<!-- Generator: Adobe Illustrator 24.0.1, SVG Export Plug-In . SVG Version: 6.00 Build 0)  -->
<svg version="1.1" id="Layer_1" xmlns="http://www.w3.org/2000/svg" xmlns:xlink="http://www.w3.org/1999/xlink" x="0px" y="0px"
	 viewBox="0 0 31 30" style="enable-background:new 0 0 31 30;" xml:space="preserve">
<style type="text/css">
	.st0{fill:#FFFFFF;}
</style>
<g>
	<path class="st0" d="M20.7,17.8h-10c-3.3,0-6,2.7-6,6v2.5c0,0.6,0.4,1,1,1s1-0.4,1-1v-2.5c0-2.2,1.8-4,4-4h10c2.2,0,4,1.8,4,4v2.5
		c0,0.6,0.4,1,1,1s1-0.4,1-1v-2.5C26.7,20.4,24,17.8,20.7,17.8z"/>
	<path class="st0" d="M15.7,14.8c3.3,0,6-2.7,6-6s-2.7-6-6-6s-6,2.7-6,6S12.4,14.8,15.7,14.8z M15.7,4.8c2.2,0,4,1.8,4,4s-1.8,4-4,4
		s-4-1.8-4-4S13.5,4.8,15.7,4.8z"/>
</g>
</svg>
