<svg width="24" height="24" viewBox="0 0 24 24" fill="none" xmlns="http://www.w3.org/2000/svg">
<path fill-rule="evenodd" clip-rule="evenodd" d="M20.5031 3.48755C18.2472 1.23969 15.2471 0.00114047 12.0504 0C5.4634 0 0.102564 5.33454 0.100272 11.8917C0.0991262 13.9878 0.649764 16.0338 1.69546 17.8369L0 24L6.33491 22.3463C8.08022 23.2941 10.0456 23.793 12.0453 23.7936H12.0504C12.051 23.7936 12.0499 23.7936 12.0504 23.7936C18.6363 23.7936 23.9977 18.4585 24 11.9014C24.0011 8.72344 22.7595 5.73541 20.5031 3.48755ZM12.0504 21.7852H12.0464C10.2644 21.7846 8.51626 21.3079 6.99098 20.4075L6.62828 20.1931L2.86893 21.1745L3.87223 17.5267L3.63616 17.1526C2.64203 15.5788 2.1166 13.7597 2.11775 11.8922C2.12004 6.4425 6.57556 2.00836 12.0544 2.00836C14.7073 2.0095 17.201 3.03878 19.0764 4.90743C20.9517 6.77552 21.9837 9.25946 21.9825 11.9002C21.9802 17.3505 17.5247 21.7852 12.0504 21.7852ZM17.4984 14.3819C17.1998 14.233 15.7318 13.5145 15.458 13.4153C15.1841 13.3161 14.9852 13.2665 14.7864 13.5642C14.5876 13.8618 14.0152 14.5313 13.841 14.7291C13.6668 14.9276 13.4926 14.9521 13.1941 14.8033C12.8956 14.6544 11.9335 14.3408 10.7927 13.3286C9.90517 12.5406 9.30583 11.5678 9.13164 11.2701C8.95746 10.9724 9.11331 10.8116 9.26228 10.6639C9.39636 10.5305 9.56081 10.3167 9.71036 10.1433C9.85991 9.96997 9.90918 9.84566 10.0089 9.64779C10.1086 9.44934 10.0587 9.27599 9.98424 9.12716C9.90976 8.97833 9.31271 7.51568 9.06346 6.92093C8.82109 6.34157 8.5747 6.42026 8.39192 6.41057C8.21773 6.40201 8.01891 6.4003 7.81951 6.4003C7.62069 6.4003 7.29695 6.47443 7.02306 6.7721C6.74918 7.06976 5.97794 7.78882 5.97794 9.2509C5.97794 10.7136 7.0477 12.1266 7.19725 12.325C7.3468 12.5235 9.30297 15.5246 12.298 16.8122C13.0102 17.1184 13.5665 17.3015 14.0003 17.4383C14.7154 17.6647 15.3663 17.6328 15.8808 17.5564C16.4544 17.4708 17.6473 16.8373 17.896 16.1433C18.1447 15.4493 18.1447 14.854 18.0702 14.7303C17.9957 14.6054 17.7969 14.5307 17.4984 14.3819Z" fill="#00668C"/>
</svg>
